<svg width="540" height="568" viewBox="0 0 540 568" fill="none" xmlns="http://www.w3.org/2000/svg">
<circle cx="390.5" cy="28.5" r="23.5" fill="#113340"/>
<circle cx="148.5" cy="28.5" r="23.5" fill="#113340"/>
<rect x="149" y="47.799" width="28" height="142.822" transform="rotate(-45 149 47.799)" fill="#113340"/>
<rect x="334" y="528.799" width="28" height="47.1297" transform="rotate(-45 334 528.799)" fill="#113340"/>
<rect x="185.326" y="509" width="28" height="47.1297" transform="rotate(45 185.326 509)" fill="#113340"/>
<rect x="370.99" y="28" width="28" height="142.822" transform="rotate(45 370.99 28)" fill="#113340"/>
<rect x="5" y="149" width="529" height="380" rx="74" fill="#113340"/>
<ellipse cx="269.5" cy="159" rx="73.5" ry="35" fill="#113340"/>
<rect x="41" y="175" width="457" height="328" rx="74" fill="#1D7CA2"/>
<rect x="66" y="194" width="407" height="291" rx="74" fill="#113340"/>
<rect x="91" y="211" width="357" height="256" rx="74" fill="#1D7CA2"/>
<ellipse cx="348" cy="339" rx="66" ry="87" fill="#EFE9DB"/>
<ellipse cx="191" cy="339" rx="66" ry="87" fill="#EFE9DB"/>
<ellipse cx="209" cy="339" rx="27" ry="39" fill="#113340"/>
<ellipse cx="330" cy="339" rx="27" ry="39" fill="#113340"/>
</svg>
